<?xml version="1.0" encoding="UTF-8"?>
<svg xmlns="http://www.w3.org/2000/svg" xmlns:xlink="http://www.w3.org/1999/xlink" width="50pt" height="50pt" viewBox="0 0 50 50" version="1.1">
<g id="surface1">
<rect x="0" y="0" width="50" height="50" style="fill:rgb(11.372549%,63.137255%,94.901961%);fill-opacity:1;stroke:none;"/>
<path style=" stroke:none;fill-rule:nonzero;fill:rgb(100%,100%,100%);fill-opacity:1;" d="M 19.199219 37.699219 C 30.988281 37.699219 37.4375 27.925781 37.4375 19.460938 C 37.4375 19.1875 37.4375 18.914062 37.425781 18.636719 C 38.675781 17.738281 39.761719 16.601562 40.625 15.3125 C 39.476562 15.824219 38.238281 16.164062 36.9375 16.324219 C 38.261719 15.539062 39.273438 14.273438 39.761719 12.773438 C 38.523438 13.511719 37.148438 14.039062 35.6875 14.324219 C 34.511719 13.074219 32.851562 12.300781 31.011719 12.300781 C 27.476562 12.300781 24.601562 15.175781 24.601562 18.710938 C 24.601562 19.210938 24.664062 19.699219 24.761719 20.175781 C 19.4375 19.914062 14.710938 17.351562 11.550781 13.476562 C 11 14.425781 10.6875 15.523438 10.6875 16.699219 C 10.6875 18.925781 11.824219 20.886719 13.539062 22.039062 C 12.488281 22 11.5 21.710938 10.636719 21.238281 C 10.636719 21.261719 10.636719 21.289062 10.636719 21.324219 C 10.636719 24.425781 12.851562 27.023438 15.773438 27.613281 C 15.238281 27.761719 14.675781 27.835938 14.085938 27.835938 C 13.675781 27.835938 13.273438 27.800781 12.886719 27.726562 C 13.699219 30.273438 16.074219 32.125 18.875 32.175781 C 16.675781 33.898438 13.914062 34.925781 10.914062 34.925781 C 10.398438 34.925781 9.886719 34.898438 9.386719 34.835938 C 12.210938 36.636719 15.585938 37.699219 19.199219 37.699219 "/>
</g>
</svg>
